<?xml version="1.0" standalone="no"?>
<!DOCTYPE svg PUBLIC "-//W3C//DTD SVG 20010904//EN"
 "http://www.w3.org/TR/2001/REC-SVG-20010904/DTD/svg10.dtd">
<svg version="1.0" xmlns="http://www.w3.org/2000/svg"
 width="574.000000pt" height="574.000000pt" viewBox="0 0 574.000000 574.000000"
 preserveAspectRatio="xMidYMid meet">
<metadata>
Created by potrace 1.14, written by Peter Selinger 2001-2017
</metadata>
<g transform="translate(0.000000,574.000000) scale(0.100000,-0.100000)"
fill="#000000" stroke="none">
<path d="M3485 4742 c-2 -2 -328 -4 -725 -4 -780 1 -779 1 -880 -54 -64 -35
-146 -114 -186 -182 -68 -112 -67 -99 -67 -789 0 -343 3 -624 6 -625 6 -3 138
104 173 139 12 12 14 104 14 543 0 592 0 593 71 674 22 25 61 54 91 67 l53 24
825 2 825 1 22 27 c53 61 13 151 -76 175 -39 10 -136 12 -146 2z"/>
<path d="M2436 4105 c-14 -57 -26 -111 -26 -119 0 -12 22 -15 126 -15 69 0
129 -3 133 -5 4 -3 8 -181 8 -396 0 -214 2 -392 5 -395 4 -4 206 -9 245 -6 8
1 11 97 12 369 0 202 0 381 0 398 1 27 5 32 31 36 28 4 30 3 31 -31 0 -20 1
-201 1 -403 0 -375 2 -390 37 -368 10 6 13 96 13 404 l-1 396 80 0 c43 0 79 3
79 6 0 3 -9 42 -21 87 -12 45 -23 93 -26 106 -2 14 -6 28 -9 33 -3 4 -160 8
-348 8 l-344 0 -26 -105z"/>
<path d="M3220 4193 c0 -10 9 -49 19 -88 14 -51 16 -75 8 -90 -38 -73 -49
-253 -21 -371 28 -121 99 -250 182 -330 47 -45 144 -104 198 -120 55 -16 87
-21 161 -25 l48 -3 31 114 c23 85 35 115 50 121 16 6 14 8 -9 8 -38 1 -124 43
-173 85 -72 62 -122 178 -122 287 0 71 10 101 47 142 31 33 76 47 160 47 l64
0 -7 33 c-9 40 -10 45 -33 136 l-18 73 -160 -4 c-176 -5 -211 -14 -298 -75
-26 -18 -49 -33 -50 -33 -2 0 -9 25 -16 55 -11 48 -15 55 -37 55 -16 0 -24 -6
-24 -17z m400 -241 c-90 -47 -108 -207 -40 -347 44 -90 106 -150 186 -179 36
-13 37 -15 11 -15 -42 -1 -147 51 -191 95 -98 99 -140 281 -89 382 21 40 88
82 132 82 24 0 23 -1 -9 -18z"/>
<path d="M3870 4198 c1 -34 58 -222 69 -226 6 -2 18 -2 25 1 12 5 11 19 -5 84
-41 161 -38 153 -64 153 -14 0 -25 -6 -25 -12z"/>
<path d="M4644 3659 c-17 -5 -39 -18 -50 -30 -18 -20 -19 -39 -19 -308 -1
-278 -1 -287 -24 -339 -34 -77 -113 -138 -201 -157 -19 -4 -506 -8 -1082 -8
l-1047 0 -110 -91 c-101 -83 -108 -92 -88 -99 26 -11 2267 -14 2345 -4 91 12
175 58 256 139 133 134 145 180 143 560 l-2 288 -25 25 c-30 30 -53 35 -96 24z"/>
<path d="M3915 3305 c-14 -55 -28 -108 -31 -118 -5 -15 -1 -18 22 -15 27 3 30
9 55 103 35 126 35 130 5 130 -22 0 -26 -8 -51 -100z"/>
<path d="M2979 2453 c-1 -5 -3 -37 -4 -73 -1 -36 -3 -69 -4 -75 -1 -6 -69 -10
-184 -10 -100 0 -195 -3 -212 -7 -36 -9 -75 -54 -75 -87 0 -31 37 -87 68 -100
15 -8 243 -11 688 -11 552 0 670 2 692 14 61 32 76 121 27 164 -29 25 -24 24
-260 26 l-170 1 -3 83 -3 82 -279 0 c-154 0 -281 -3 -281 -7z"/>
<path d="M1839 2102 c-1 -22 -1 -875 0 -883 1 -10 37 -17 49 -10 6 3 10 80 10
192 1 200 9 241 55 281 66 59 181 50 230 -17 26 -36 33 -92 32 -282 l-1 -171
28 -4 c33 -5 30 -29 29 235 0 172 -2 193 -21 233 -57 117 -238 146 -331 53
-22 -22 -21 -41 -20 221 l0 165 -29 2 c-22 2 -30 -2 -31 -15z"/>
<path d="M1918 2113 c-10 -18 -2 -348 7 -348 6 0 10 65 10 173 1 153 -4 201
-17 175z"/>
<path d="M4000 2075 c-181 -51 -316 -221 -324 -409 -4 -72 18 -175 49 -237 54
-105 178 -201 295 -228 128 -30 279 4 375 82 29 24 29 25 12 51 l-18 26 -44
-30 c-81 -56 -140 -73 -242 -73 -89 1 -168 37 -244 112 -76 76 -108 146 -114
248 -19 311 322 516 577 348 47 -31 52 -31 72 0 16 24 15 25 -23 50 -99 66
-257 91 -371 60z"/>
<path d="M270 2043 l0 -33 94 0 c66 0 95 -4 98 -12 2 -7 4 -187 3 -400 l0
-388 32 0 33 0 0 400 0 399 117 3 116 3 1 28 c1 15 -1 28 -4 28 -3 1 -114 2
-247 3 l-243 2 0 -33z"/>
<path d="M4045 2000 c-97 -22 -202 -104 -243 -188 -117 -242 39 -523 298 -537
87 -5 188 29 252 83 31 26 8 33 -26 7 -130 -99 -306 -91 -433 19 -25 22 -56
64 -75 104 -30 60 -33 75 -33 152 0 96 26 166 85 233 106 121 298 148 432 60
39 -26 70 -23 33 2 -11 8 -24 18 -30 23 -43 35 -189 59 -260 42z"/>
<path d="M4475 1984 c-42 -45 -11 -114 52 -114 42 0 73 30 73 70 0 66 -79 94
-125 44z m102 -12 c18 -25 16 -49 -7 -72 -24 -24 -48 -25 -78 -4 -46 32 -9
113 46 99 14 -3 32 -14 39 -23z"/>
<path d="M4499 1971 c-16 -13 -20 -23 -15 -39 8 -24 46 -51 46 -32 0 5 -6 10
-14 10 -17 0 -28 24 -20 44 9 22 30 26 53 9 21 -14 21 -16 7 -39 -22 -32 -20
-41 3 -20 18 16 20 43 7 65 -11 18 -47 19 -67 2z"/>
<path d="M270 1980 c0 -13 168 -12 176 1 3 5 -35 9 -85 9 -55 0 -91 -4 -91
-10z"/>
<path d="M550 1594 c0 -238 4 -393 9 -390 5 4 10 165 10 382 0 207 2 379 5
381 3 3 45 5 95 5 50 0 91 4 91 9 0 5 -47 9 -105 9 l-105 0 0 -396z"/>
<path d="M4823 1952 c-26 -4 -25 0 -25 -104 l0 -78 -49 0 c-48 0 -49 -1 -49
-30 0 -16 3 -29 8 -29 4 1 25 1 48 0 l41 -1 1 -237 c0 -131 1 -244 1 -250 1
-8 14 -13 31 -13 l30 0 0 250 0 249 63 3 c57 3 62 5 61 26 -1 24 11 30 19 10
3 -7 48 -116 101 -242 l97 -229 -76 -181 c-41 -99 -75 -184 -75 -188 0 -13 58
-9 67 5 4 6 25 55 46 107 21 52 44 109 51 125 8 17 58 134 111 260 53 127 110
259 126 295 l28 65 -31 3 c-17 2 -34 0 -38 -5 -4 -4 -42 -91 -85 -193 -42
-102 -80 -189 -84 -193 -7 -7 -154 321 -169 376 -4 15 -18 17 -108 17 l-104 0
0 89 c0 50 -3 91 -7 93 -5 2 -18 2 -30 0z"/>
<path d="M4880 1870 c0 -45 4 -80 10 -80 5 0 9 34 8 80 -1 44 -5 80 -10 80 -4
0 -8 -36 -8 -80z"/>
<path d="M4401 1805 c-32 -41 -35 -80 -12 -129 12 -23 32 -48 46 -54 25 -11
25 -14 26 -129 1 -229 1 -226 32 -241 23 -11 31 -11 44 0 10 7 14 8 10 1 -10
-16 29 -5 44 13 8 9 12 71 12 187 0 170 0 172 25 199 34 37 36 101 4 146 -13
17 -27 32 -32 32 -5 0 -9 -23 -8 -51 0 -33 -5 -55 -14 -60 -50 -33 -110 -7
-108 45 3 52 0 67 -10 61 -5 -3 -11 -30 -11 -58 -1 -44 -3 -47 -9 -22 -4 17
-5 42 -2 58 6 34 -10 35 -37 2z m182 -361 c-1 -92 -5 -170 -10 -175 -4 -4 -7
60 -6 144 2 84 3 162 3 175 0 12 3 22 8 22 4 0 6 -75 5 -166z"/>
<path d="M4630 1824 c0 -3 9 -17 20 -31 35 -44 24 -115 -24 -155 -23 -19 -15
-24 15 -8 41 23 62 102 38 153 -10 21 -49 55 -49 41z"/>
<path d="M876 1773 c-187 -64 -259 -297 -143 -460 101 -143 313 -157 423 -29
l35 40 -23 18 c-22 16 -24 16 -58 -19 -48 -48 -83 -64 -144 -65 -96 -2 -188
63 -215 151 -21 70 -36 66 237 66 213 0 247 2 247 15 -3 91 -50 191 -112 236
-75 54 -173 73 -247 47z m194 -88 c46 -32 86 -87 92 -126 l3 -24 -212 -1
c-117 -1 -213 0 -213 1 0 17 30 78 52 106 65 84 191 104 278 44z"/>
<path d="M918 1700 c-64 -11 -121 -62 -150 -132 -7 -17 6 -18 187 -18 l195 0
-11 28 c-13 33 -64 89 -101 108 -16 8 -28 12 -28 10 0 -3 -12 -1 -27 3 -16 4
-45 4 -65 1z m100 -28 c27 -8 92 -69 92 -87 0 -9 -42 -13 -161 -14 -152 -2
-160 -1 -150 16 46 78 129 110 219 85z"/>
<path d="M1540 1780 c-104 -19 -203 -117 -226 -224 -30 -141 51 -296 179 -344
81 -31 188 -18 251 31 19 14 19 16 3 40 l-17 26 -44 -25 c-82 -46 -177 -31
-246 37 -113 114 -85 305 56 377 50 25 148 25 188 -1 25 -17 26 -16 43 9 16
25 16 27 -2 40 -39 28 -128 45 -185 34z"/>
<path d="M2578 1780 c-20 -4 -55 -19 -78 -33 l-40 -27 0 25 c0 22 -4 25 -32
25 l-33 0 1 -278 0 -277 31 -3 30 -3 1 195 c1 162 4 201 18 228 23 45 62 77
104 84 19 3 40 7 45 8 15 4 84 -21 98 -36 48 -50 50 -63 51 -274 l1 -202 27
-4 c27 -4 28 -3 29 41 4 201 3 323 -3 365 -17 116 -125 188 -250 166z"/>
<path d="M3156 1758 c-6 -25 -101 -74 -111 -57 -10 15 -38 10 -64 -12 -21 -17
-22 -23 -12 -45 16 -35 -20 -120 -55 -128 -20 -5 -24 -13 -24 -41 0 -28 4 -36
24 -41 33 -8 70 -100 52 -129 -11 -16 -9 -23 12 -44 20 -20 29 -23 51 -15 37
14 117 -20 126 -53 4 -19 12 -23 45 -23 33 0 40 3 40 20 0 29 95 71 128 57 19
-9 27 -6 48 15 23 22 24 28 13 46 -11 17 -10 27 6 64 20 46 42 71 56 62 9 -5
12 11 12 51 -1 33 -2 35 -23 35 -28 0 -65 85 -52 122 8 23 6 30 -17 51 -21 20
-30 23 -48 15 -32 -15 -111 17 -119 48 -5 20 -13 24 -44 24 -31 0 -39 -4 -44
-22z m121 -134 c106 -51 118 -212 20 -284 -43 -32 -128 -38 -177 -13 -99 51
-119 184 -40 263 58 58 122 69 197 34z"/>
<path d="M3152 1563 c-56 -27 -69 -85 -33 -150 30 -57 136 -52 166 8 49 94
-39 188 -133 142z"/>
<path d="M5121 1678 c22 -51 56 -132 76 -180 20 -48 40 -85 44 -82 5 2 6 12 2
22 -8 27 -73 181 -104 250 -16 34 -29 67 -29 72 0 6 -6 10 -14 10 -11 0 -4
-24 25 -92z"/>
<path d="M5497 1763 c-3 -5 -62 -143 -131 -308 -136 -321 -168 -397 -197 -460
-21 -49 -34 -95 -25 -95 3 0 17 24 30 53 24 51 292 686 334 790 10 24 1 40
-11 20z"/>
<path d="M2020 1698 c-41 -11 -66 -32 -88 -73 -13 -24 -16 -67 -17 -222 0
-131 3 -193 10 -193 7 0 10 61 10 187 0 149 3 193 15 217 41 80 140 94 201 30
24 -25 24 -29 24 -230 0 -159 3 -204 13 -204 10 0 12 43 9 204 -2 172 -5 207
-20 229 -33 51 -94 72 -157 55z"/>
<path d="M2576 1699 c-35 -10 -74 -45 -89 -79 -14 -34 -16 -410 -2 -410 7 0
10 61 10 183 -1 100 3 194 7 208 5 14 22 39 38 54 54 52 156 32 184 -37 9 -20
13 -88 14 -207 1 -213 0 -201 10 -201 4 0 7 92 7 204 l-1 204 -27 36 c-16 20
-38 38 -50 41 -48 11 -73 12 -101 4z"/>
<path d="M1500 1683 c-80 -52 -113 -111 -112 -195 2 -119 84 -210 193 -212 52
0 129 30 129 51 0 12 -7 10 -32 -5 -91 -55 -213 -14 -255 87 -17 41 -20 115
-5 152 15 37 60 87 93 105 39 20 108 20 147 0 36 -19 42 -20 42 -5 0 35 -154
52 -200 22z"/>
<path d="M4705 1692 c-2 -3 -2 -9 1 -13 7 -12 74 -12 74 0 0 9 -67 20 -75 13z"/>
<path d="M4897 1692 c-15 -3 -17 -25 -17 -243 0 -134 4 -239 9 -239 5 0 9 90
9 203 1 111 1 214 1 230 1 25 4 27 40 27 22 0 42 4 45 9 6 9 -57 19 -87 13z"/>
<path d="M760 1445 c0 -47 55 -122 112 -151 35 -18 101 -24 143 -13 37 11 118
77 109 90 -3 6 -23 -6 -45 -25 -98 -89 -235 -56 -290 70 -21 46 -29 54 -29 29z"/>
</g>
</svg>
